<mxfile host="65bd71144e">
    <diagram id="kV98len1ymx3FDmM5QV4" name="Page-1">
        <mxGraphModel dx="2697" dy="1618" grid="1" gridSize="10" guides="1" tooltips="1" connect="1" arrows="1" fold="1" page="1" pageScale="1" pageWidth="850" pageHeight="1100" math="0" shadow="0">
            <root>
                <mxCell id="0"/>
                <mxCell id="1" parent="0"/>
                <mxCell id="2" value="&lt;b style=&quot;border-color: var(--border-color); font-size: 18px;&quot;&gt;■ ドメインモデル&lt;/b&gt;" style="text;html=1;strokeColor=none;fillColor=none;align=left;verticalAlign=middle;whiteSpace=wrap;rounded=0;" parent="1" vertex="1">
                    <mxGeometry x="20" y="10" width="160" height="30" as="geometry"/>
                </mxCell>
                <mxCell id="3" value="&lt;b style=&quot;border-color: var(--border-color); font-size: 18px;&quot;&gt;■ オブジェクト図&lt;/b&gt;" style="text;html=1;strokeColor=none;fillColor=none;align=left;verticalAlign=middle;whiteSpace=wrap;rounded=0;" parent="1" vertex="1">
                    <mxGeometry x="20" y="1000" width="170" height="30" as="geometry"/>
                </mxCell>
                <mxCell id="4" value="&lt;u&gt;プロジェクト&lt;/u&gt;&lt;br&gt;&lt;br&gt;&lt;div style=&quot;text-align: left;&quot;&gt;&lt;span style=&quot;background-color: initial;&quot;&gt;・プロジェクト名&lt;/span&gt;&lt;/div&gt;&lt;div style=&quot;text-align: left;&quot;&gt;&lt;span style=&quot;background-color: initial;&quot;&gt;・開始日&lt;/span&gt;&lt;/div&gt;&lt;div style=&quot;text-align: left;&quot;&gt;&lt;span style=&quot;background-color: initial;&quot;&gt;・完了予定日&lt;/span&gt;&lt;/div&gt;" style="rounded=1;whiteSpace=wrap;html=1;fontSize=18;verticalAlign=top;fillColor=#fff2cc;strokeColor=#d6b656;" parent="1" vertex="1">
                    <mxGeometry x="30" y="160" width="210" height="120" as="geometry"/>
                </mxCell>
                <mxCell id="5" value="&lt;u&gt;タスク名&lt;/u&gt;&lt;br&gt;&lt;br&gt;&lt;div style=&quot;text-align: left;&quot;&gt;&lt;span style=&quot;background-color: initial;&quot;&gt;・タスク名&lt;/span&gt;&lt;/div&gt;&lt;div style=&quot;text-align: left;&quot;&gt;&lt;span style=&quot;background-color: initial;&quot;&gt;・詳細&lt;/span&gt;&lt;/div&gt;&lt;div style=&quot;text-align: left;&quot;&gt;&lt;span style=&quot;background-color: initial;&quot;&gt;・ステータス&lt;/span&gt;&lt;/div&gt;&lt;div style=&quot;text-align: left;&quot;&gt;&lt;span style=&quot;background-color: initial;&quot;&gt;・設計Doc URL&lt;/span&gt;&lt;/div&gt;" style="rounded=1;whiteSpace=wrap;html=1;fontSize=18;verticalAlign=top;fillColor=#fff2cc;strokeColor=#d6b656;" parent="1" vertex="1">
                    <mxGeometry x="490" y="150" width="210" height="140" as="geometry"/>
                </mxCell>
                <mxCell id="6" value="" style="endArrow=none;html=1;fontSize=18;exitX=1;exitY=0.5;exitDx=0;exitDy=0;entryX=0;entryY=0.5;entryDx=0;entryDy=0;strokeColor=#FF0000;" parent="1" source="4" target="5" edge="1">
                    <mxGeometry width="50" height="50" relative="1" as="geometry">
                        <mxPoint x="300" y="150" as="sourcePoint"/>
                        <mxPoint x="350" y="100" as="targetPoint"/>
                    </mxGeometry>
                </mxCell>
                <mxCell id="7" value="0..n" style="edgeLabel;html=1;align=center;verticalAlign=middle;resizable=0;points=[];fontSize=18;" parent="6" vertex="1" connectable="0">
                    <mxGeometry x="0.8137" y="1" relative="1" as="geometry">
                        <mxPoint as="offset"/>
                    </mxGeometry>
                </mxCell>
                <mxCell id="8" value="1" style="edgeLabel;html=1;align=center;verticalAlign=middle;resizable=0;points=[];fontSize=18;" parent="6" vertex="1" connectable="0">
                    <mxGeometry x="-0.832" y="-3" relative="1" as="geometry">
                        <mxPoint as="offset"/>
                    </mxGeometry>
                </mxCell>
                <mxCell id="9" value="&lt;u&gt;マイルストーン&lt;/u&gt;&lt;br&gt;&lt;br&gt;&lt;div style=&quot;text-align: left;&quot;&gt;&lt;span style=&quot;background-color: initial;&quot;&gt;・マイルストーン名&lt;/span&gt;&lt;/div&gt;&lt;div style=&quot;text-align: left;&quot;&gt;&lt;span style=&quot;background-color: initial;&quot;&gt;・開始日&lt;/span&gt;&lt;/div&gt;&lt;div style=&quot;text-align: left;&quot;&gt;&lt;span style=&quot;background-color: initial;&quot;&gt;・完了予定日&lt;/span&gt;&lt;/div&gt;" style="rounded=1;whiteSpace=wrap;html=1;fontSize=18;verticalAlign=top;fillColor=#fff2cc;strokeColor=#d6b656;" parent="1" vertex="1">
                    <mxGeometry x="490" y="490" width="210" height="120" as="geometry"/>
                </mxCell>
                <mxCell id="10" value="" style="endArrow=none;html=1;fontSize=18;exitX=0.5;exitY=1;exitDx=0;exitDy=0;entryX=0;entryY=0.5;entryDx=0;entryDy=0;strokeColor=#FF0000;" parent="1" source="4" target="9" edge="1">
                    <mxGeometry width="50" height="50" relative="1" as="geometry">
                        <mxPoint x="250" y="280" as="sourcePoint"/>
                        <mxPoint x="500" y="280" as="targetPoint"/>
                    </mxGeometry>
                </mxCell>
                <mxCell id="11" value="1..n" style="edgeLabel;html=1;align=center;verticalAlign=middle;resizable=0;points=[];fontSize=18;" parent="10" vertex="1" connectable="0">
                    <mxGeometry x="0.8137" y="1" relative="1" as="geometry">
                        <mxPoint as="offset"/>
                    </mxGeometry>
                </mxCell>
                <mxCell id="12" value="1" style="edgeLabel;html=1;align=center;verticalAlign=middle;resizable=0;points=[];fontSize=18;" parent="10" vertex="1" connectable="0">
                    <mxGeometry x="-0.832" y="-3" relative="1" as="geometry">
                        <mxPoint as="offset"/>
                    </mxGeometry>
                </mxCell>
                <mxCell id="16" value="" style="endArrow=none;html=1;fontSize=18;exitX=0.5;exitY=1;exitDx=0;exitDy=0;strokeColor=#FF0000;" parent="1" source="5" target="9" edge="1">
                    <mxGeometry width="50" height="50" relative="1" as="geometry">
                        <mxPoint x="370" y="260" as="sourcePoint"/>
                        <mxPoint x="725" y="500" as="targetPoint"/>
                    </mxGeometry>
                </mxCell>
                <mxCell id="17" value="1" style="edgeLabel;html=1;align=center;verticalAlign=middle;resizable=0;points=[];fontSize=18;" parent="16" vertex="1" connectable="0">
                    <mxGeometry x="0.8137" y="1" relative="1" as="geometry">
                        <mxPoint as="offset"/>
                    </mxGeometry>
                </mxCell>
                <mxCell id="18" value="1" style="edgeLabel;html=1;align=center;verticalAlign=middle;resizable=0;points=[];fontSize=18;" parent="16" vertex="1" connectable="0">
                    <mxGeometry x="-0.832" y="-3" relative="1" as="geometry">
                        <mxPoint as="offset"/>
                    </mxGeometry>
                </mxCell>
                <mxCell id="19" value="0..n" style="edgeLabel;html=1;align=center;verticalAlign=middle;resizable=0;points=[];fontSize=18;" parent="16" vertex="1" connectable="0">
                    <mxGeometry x="-0.8286" y="5" relative="1" as="geometry">
                        <mxPoint as="offset"/>
                    </mxGeometry>
                </mxCell>
                <mxCell id="20" value="&lt;font style=&quot;font-size: 14px;&quot;&gt;マイルストーンに紐づいていない&lt;br&gt;タスクは「作業中」にできない&lt;/font&gt;" style="rounded=0;whiteSpace=wrap;html=1;fontSize=18;fillColor=#FFE6CC;" parent="1" vertex="1">
                    <mxGeometry x="610" y="70" width="250" height="60" as="geometry"/>
                </mxCell>
                <mxCell id="21" value="" style="endArrow=none;html=1;fontSize=18;exitX=0.25;exitY=1;exitDx=0;exitDy=0;strokeColor=#FF0000;" parent="1" source="20" target="5" edge="1">
                    <mxGeometry width="50" height="50" relative="1" as="geometry">
                        <mxPoint x="200" y="500" as="sourcePoint"/>
                        <mxPoint x="555" y="740" as="targetPoint"/>
                    </mxGeometry>
                </mxCell>
                <mxCell id="24" value="&lt;u&gt;社員&lt;/u&gt;&lt;br&gt;&lt;br&gt;&lt;div style=&quot;text-align: left;&quot;&gt;&lt;span style=&quot;background-color: initial;&quot;&gt;・氏名&lt;/span&gt;&lt;/div&gt;&lt;div style=&quot;text-align: left;&quot;&gt;&lt;span style=&quot;background-color: initial;&quot;&gt;・Email&lt;/span&gt;&lt;/div&gt;&lt;div style=&quot;text-align: left;&quot;&gt;&lt;span style=&quot;background-color: initial;&quot;&gt;・パスワード&lt;/span&gt;&lt;/div&gt;&lt;div style=&quot;text-align: left;&quot;&gt;&lt;span style=&quot;background-color: initial;&quot;&gt;・役割(SE, PG)&lt;/span&gt;&lt;/div&gt;" style="rounded=1;whiteSpace=wrap;html=1;fontSize=18;verticalAlign=top;fillColor=#fff2cc;strokeColor=#d6b656;" parent="1" vertex="1">
                    <mxGeometry x="860" y="150" width="210" height="140" as="geometry"/>
                </mxCell>
                <mxCell id="25" value="&lt;div style=&quot;text-align: left;&quot;&gt;&lt;span style=&quot;font-size: 14px; background-color: initial;&quot;&gt;・役割は SE/PG&lt;/span&gt;&lt;/div&gt;&lt;span style=&quot;font-size: 14px;&quot;&gt;&lt;div style=&quot;text-align: left;&quot;&gt;&lt;span style=&quot;background-color: initial;&quot;&gt;・ログインは Email, パスワード&lt;/span&gt;&lt;/div&gt;&lt;div style=&quot;text-align: left;&quot;&gt;&lt;span style=&quot;background-color: initial;&quot;&gt;・パスワードは英数字8～16文字&lt;/span&gt;&lt;/div&gt;&lt;/span&gt;" style="rounded=0;whiteSpace=wrap;html=1;fontSize=18;fillColor=#FFE6CC;" parent="1" vertex="1">
                    <mxGeometry x="1130" y="340" width="250" height="70" as="geometry"/>
                </mxCell>
                <mxCell id="26" value="" style="endArrow=none;html=1;fontSize=18;exitX=0;exitY=0.5;exitDx=0;exitDy=0;strokeColor=#FF0000;" parent="1" source="25" target="24" edge="1">
                    <mxGeometry width="50" height="50" relative="1" as="geometry">
                        <mxPoint x="1173.75" y="170" as="sourcePoint"/>
                        <mxPoint x="1100" y="240" as="targetPoint"/>
                    </mxGeometry>
                </mxCell>
                <mxCell id="31" value="" style="endArrow=none;html=1;fontSize=18;exitX=0;exitY=0.5;exitDx=0;exitDy=0;strokeColor=#FF0000;entryX=1;entryY=0.5;entryDx=0;entryDy=0;" parent="1" source="24" target="5" edge="1">
                    <mxGeometry width="50" height="50" relative="1" as="geometry">
                        <mxPoint x="752.5" y="90" as="sourcePoint"/>
                        <mxPoint x="678.75" y="160" as="targetPoint"/>
                    </mxGeometry>
                </mxCell>
                <mxCell id="32" value="&lt;span style=&quot;font-size: 18px;&quot;&gt;0..n&lt;/span&gt;" style="edgeLabel;html=1;align=center;verticalAlign=middle;resizable=0;points=[];fontSize=14;" parent="31" vertex="1" connectable="0">
                    <mxGeometry x="0.7375" y="-1" relative="1" as="geometry">
                        <mxPoint as="offset"/>
                    </mxGeometry>
                </mxCell>
                <mxCell id="33" value="1" style="edgeLabel;html=1;align=center;verticalAlign=middle;resizable=0;points=[];fontSize=18;" parent="31" vertex="1" connectable="0">
                    <mxGeometry x="-0.7089" y="-3" relative="1" as="geometry">
                        <mxPoint as="offset"/>
                    </mxGeometry>
                </mxCell>
                <mxCell id="36" value="" style="endArrow=none;html=1;fontSize=18;exitX=0.25;exitY=1;exitDx=0;exitDy=0;strokeColor=#FF0000;entryX=0.25;entryY=1;entryDx=0;entryDy=0;" parent="1" source="24" target="4" edge="1">
                    <mxGeometry width="50" height="50" relative="1" as="geometry">
                        <mxPoint x="530" y="360" as="sourcePoint"/>
                        <mxPoint x="370" y="360" as="targetPoint"/>
                        <Array as="points">
                            <mxPoint x="860" y="750"/>
                            <mxPoint x="83" y="750"/>
                        </Array>
                    </mxGeometry>
                </mxCell>
                <mxCell id="37" value="&lt;span style=&quot;font-size: 18px;&quot;&gt;0..3&lt;/span&gt;" style="edgeLabel;html=1;align=center;verticalAlign=middle;resizable=0;points=[];fontSize=14;" parent="36" vertex="1" connectable="0">
                    <mxGeometry x="0.7375" y="-1" relative="1" as="geometry">
                        <mxPoint y="-204" as="offset"/>
                    </mxGeometry>
                </mxCell>
                <mxCell id="38" value="0..n" style="edgeLabel;html=1;align=center;verticalAlign=middle;resizable=0;points=[];fontSize=18;" parent="36" vertex="1" connectable="0">
                    <mxGeometry x="-0.7089" y="-3" relative="1" as="geometry">
                        <mxPoint x="29" y="-227" as="offset"/>
                    </mxGeometry>
                </mxCell>
                <mxCell id="39" value="&lt;div style=&quot;text-align: left;&quot;&gt;&lt;span style=&quot;font-size: 14px; background-color: initial;&quot;&gt;新人は1個だけ&lt;/span&gt;&lt;/div&gt;&lt;span style=&quot;font-size: 14px;&quot;&gt;&lt;div style=&quot;text-align: left;&quot;&gt;&lt;span style=&quot;background-color: initial;&quot;&gt;→ 新人の定義があいまいであるため、&lt;/span&gt;&lt;/div&gt;&lt;div style=&quot;text-align: left;&quot;&gt;&lt;span style=&quot;background-color: initial;&quot;&gt;　 初期リリースでは運用でカバーする&lt;/span&gt;&lt;/div&gt;&lt;/span&gt;" style="rounded=0;whiteSpace=wrap;html=1;fontSize=18;fillColor=#FFE6CC;" parent="1" vertex="1">
                    <mxGeometry x="-190" y="320" width="250" height="70" as="geometry"/>
                </mxCell>
                <mxCell id="40" value="" style="endArrow=none;html=1;fontSize=18;exitX=0;exitY=0.75;exitDx=0;exitDy=0;strokeColor=#FF0000;entryX=0.5;entryY=0;entryDx=0;entryDy=0;" parent="1" source="4" target="39" edge="1">
                    <mxGeometry width="50" height="50" relative="1" as="geometry">
                        <mxPoint x="13.75" y="220" as="sourcePoint"/>
                        <mxPoint x="-60" y="290" as="targetPoint"/>
                    </mxGeometry>
                </mxCell>
                <mxCell id="42" value="&lt;u&gt;スレッド名&lt;/u&gt;&lt;br&gt;&lt;br&gt;&lt;div style=&quot;text-align: left;&quot;&gt;&lt;span style=&quot;background-color: initial;&quot;&gt;・作成日時&lt;/span&gt;&lt;/div&gt;&lt;div style=&quot;text-align: left;&quot;&gt;&lt;span style=&quot;background-color: initial;&quot;&gt;・作成者&lt;/span&gt;&lt;/div&gt;&lt;div style=&quot;text-align: left;&quot;&gt;&lt;span style=&quot;background-color: initial;&quot;&gt;・宛先&lt;/span&gt;&lt;/div&gt;&lt;div style=&quot;text-align: left;&quot;&gt;&lt;span style=&quot;background-color: initial;&quot;&gt;・タイトル(~50文字)&lt;/span&gt;&lt;/div&gt;&lt;div style=&quot;text-align: left;&quot;&gt;&lt;span style=&quot;background-color: initial;&quot;&gt;・本文(~250文字)&lt;/span&gt;&lt;/div&gt;&lt;div style=&quot;text-align: left;&quot;&gt;&lt;span style=&quot;background-color: initial;&quot;&gt;・解決フラグ&lt;/span&gt;&lt;/div&gt;" style="rounded=1;whiteSpace=wrap;html=1;fontSize=18;verticalAlign=top;fillColor=#fff2cc;strokeColor=#d6b656;" parent="1" vertex="1">
                    <mxGeometry x="437" y="-150" width="210" height="190" as="geometry"/>
                </mxCell>
                <mxCell id="43" value="&lt;span style=&quot;font-size: 14px;&quot;&gt;・宛先は未入力でもOK&lt;br&gt;・スレッドが多過ぎると&lt;br&gt;　タスクが悪いと判断&lt;br&gt;&lt;/span&gt;" style="rounded=0;whiteSpace=wrap;html=1;fontSize=18;fillColor=#FFE6CC;align=left;" parent="1" vertex="1">
                    <mxGeometry x="300" y="-280" width="170" height="70" as="geometry"/>
                </mxCell>
                <mxCell id="45" value="" style="endArrow=none;html=1;fontSize=18;exitX=0.353;exitY=1.01;exitDx=0;exitDy=0;strokeColor=#FF0000;exitPerimeter=0;" parent="1" source="43" target="42" edge="1">
                    <mxGeometry width="50" height="50" relative="1" as="geometry">
                        <mxPoint x="763.75" y="-120" as="sourcePoint"/>
                        <mxPoint x="690" y="-50" as="targetPoint"/>
                    </mxGeometry>
                </mxCell>
                <mxCell id="47" value="" style="endArrow=none;html=1;fontSize=18;exitX=0.5;exitY=1;exitDx=0;exitDy=0;strokeColor=#FF0000;entryX=0.25;entryY=0;entryDx=0;entryDy=0;" parent="1" source="42" target="5" edge="1">
                    <mxGeometry width="50" height="50" relative="1" as="geometry">
                        <mxPoint x="740.0100000000002" y="-139.5999999999999" as="sourcePoint"/>
                        <mxPoint x="640" y="-92.5" as="targetPoint"/>
                    </mxGeometry>
                </mxCell>
                <mxCell id="48" value="1" style="edgeLabel;html=1;align=center;verticalAlign=middle;resizable=0;points=[];fontSize=18;" parent="47" vertex="1" connectable="0">
                    <mxGeometry x="0.4764" relative="1" as="geometry">
                        <mxPoint y="9" as="offset"/>
                    </mxGeometry>
                </mxCell>
                <mxCell id="49" value="0..5" style="edgeLabel;html=1;align=center;verticalAlign=middle;resizable=0;points=[];fontSize=18;" parent="47" vertex="1" connectable="0">
                    <mxGeometry x="-0.5056" y="-1" relative="1" as="geometry">
                        <mxPoint y="-9" as="offset"/>
                    </mxGeometry>
                </mxCell>
                <mxCell id="50" value="&lt;u&gt;返信&lt;/u&gt;&lt;br&gt;&lt;br&gt;&lt;div style=&quot;text-align: left;&quot;&gt;&lt;span style=&quot;background-color: initial;&quot;&gt;・作成日時&lt;/span&gt;&lt;/div&gt;&lt;div style=&quot;text-align: left;&quot;&gt;&lt;span style=&quot;background-color: initial;&quot;&gt;・投稿者&lt;/span&gt;&lt;/div&gt;&lt;div style=&quot;text-align: left;&quot;&gt;&lt;span style=&quot;background-color: initial;&quot;&gt;・宛先&lt;/span&gt;&lt;/div&gt;&lt;div style=&quot;text-align: left;&quot;&gt;&lt;span style=&quot;background-color: initial;&quot;&gt;・本文(~250文字)&lt;/span&gt;&lt;br&gt;&lt;/div&gt;&lt;div style=&quot;text-align: left;&quot;&gt;&lt;br&gt;&lt;/div&gt;" style="rounded=1;whiteSpace=wrap;html=1;fontSize=18;verticalAlign=top;fillColor=#fff2cc;strokeColor=#d6b656;" parent="1" vertex="1">
                    <mxGeometry x="780" y="-153" width="150" height="140" as="geometry"/>
                </mxCell>
                <mxCell id="51" value="&lt;span style=&quot;font-size: 14px;&quot;&gt;・宛先は未入力でもOK&lt;br&gt;&lt;/span&gt;" style="rounded=0;whiteSpace=wrap;html=1;fontSize=18;fillColor=#FFE6CC;align=left;" parent="1" vertex="1">
                    <mxGeometry x="647" y="-280" width="163" height="70" as="geometry"/>
                </mxCell>
                <mxCell id="53" value="" style="endArrow=none;html=1;fontSize=18;exitX=0.344;exitY=1;exitDx=0;exitDy=0;strokeColor=#FF0000;exitPerimeter=0;" parent="1" source="51" target="50" edge="1">
                    <mxGeometry width="50" height="50" relative="1" as="geometry">
                        <mxPoint x="703.0100000000002" y="-179.99999999999994" as="sourcePoint"/>
                        <mxPoint x="780" y="-114.72412220451697" as="targetPoint"/>
                    </mxGeometry>
                </mxCell>
                <mxCell id="54" value="&lt;span style=&quot;font-size: 14px;&quot;&gt;・「ステータス」は&lt;br&gt;　状態遷移図に記載&lt;br&gt;&lt;/span&gt;" style="rounded=0;whiteSpace=wrap;html=1;fontSize=18;fillColor=#FFE6CC;align=left;" parent="1" vertex="1">
                    <mxGeometry x="303.5" y="90" width="146.5" height="70" as="geometry"/>
                </mxCell>
                <mxCell id="56" value="" style="endArrow=none;html=1;fontSize=18;exitX=0.75;exitY=1;exitDx=0;exitDy=0;strokeColor=#FF0000;entryX=0;entryY=0.25;entryDx=0;entryDy=0;" parent="1" source="54" target="5" edge="1">
                    <mxGeometry width="50" height="50" relative="1" as="geometry">
                        <mxPoint x="338.2500000000002" y="-69.99999999999994" as="sourcePoint"/>
                        <mxPoint x="415.24" y="-4.724122204516959" as="targetPoint"/>
                    </mxGeometry>
                </mxCell>
                <mxCell id="57" value="" style="endArrow=none;html=1;fontSize=18;exitX=1;exitY=0.25;exitDx=0;exitDy=0;strokeColor=#FF0000;entryX=-0.003;entryY=0.36;entryDx=0;entryDy=0;entryPerimeter=0;" parent="1" source="42" target="50" edge="1">
                    <mxGeometry width="50" height="50" relative="1" as="geometry">
                        <mxPoint x="910.005" y="-300" as="sourcePoint"/>
                        <mxPoint x="1196.63" y="-490" as="targetPoint"/>
                    </mxGeometry>
                </mxCell>
                <mxCell id="58" value="1" style="edgeLabel;html=1;align=center;verticalAlign=middle;resizable=0;points=[];fontSize=18;" parent="57" vertex="1" connectable="0">
                    <mxGeometry x="-0.5503" y="1" relative="1" as="geometry">
                        <mxPoint as="offset"/>
                    </mxGeometry>
                </mxCell>
                <mxCell id="59" value="0..n" style="edgeLabel;html=1;align=center;verticalAlign=middle;resizable=0;points=[];fontSize=18;" parent="57" vertex="1" connectable="0">
                    <mxGeometry x="0.5662" y="1" relative="1" as="geometry">
                        <mxPoint as="offset"/>
                    </mxGeometry>
                </mxCell>
                <mxCell id="61" value="" style="endArrow=none;html=1;fontSize=18;strokeColor=#FF0000;entryX=1;entryY=0.75;entryDx=0;entryDy=0;" parent="1" source="24" target="50" edge="1">
                    <mxGeometry width="50" height="50" relative="1" as="geometry">
                        <mxPoint x="589.995" y="570" as="sourcePoint"/>
                        <mxPoint x="1246.6200000000001" y="260" as="targetPoint"/>
                        <Array as="points">
                            <mxPoint x="1020" y="-13"/>
                        </Array>
                    </mxGeometry>
                </mxCell>
                <mxCell id="62" value="1" style="edgeLabel;html=1;align=center;verticalAlign=middle;resizable=0;points=[];fontSize=18;" parent="61" vertex="1" connectable="0">
                    <mxGeometry x="-0.6699" y="7" relative="1" as="geometry">
                        <mxPoint y="20" as="offset"/>
                    </mxGeometry>
                </mxCell>
                <mxCell id="63" value="0..n" style="edgeLabel;html=1;align=center;verticalAlign=middle;resizable=0;points=[];fontSize=18;" parent="61" vertex="1" connectable="0">
                    <mxGeometry x="0.792" y="2" relative="1" as="geometry">
                        <mxPoint x="-1" as="offset"/>
                    </mxGeometry>
                </mxCell>
                <mxCell id="64" value="" style="endArrow=none;html=1;fontSize=18;strokeColor=#FF0000;entryX=1;entryY=0.75;entryDx=0;entryDy=0;exitX=0.25;exitY=0;exitDx=0;exitDy=0;" parent="1" source="24" target="42" edge="1">
                    <mxGeometry width="50" height="50" relative="1" as="geometry">
                        <mxPoint x="931.5236051502147" y="144" as="sourcePoint"/>
                        <mxPoint x="880" y="-54" as="targetPoint"/>
                        <Array as="points">
                            <mxPoint x="913" y="30"/>
                        </Array>
                    </mxGeometry>
                </mxCell>
                <mxCell id="65" value="1" style="edgeLabel;html=1;align=center;verticalAlign=middle;resizable=0;points=[];fontSize=18;" parent="64" vertex="1" connectable="0">
                    <mxGeometry x="-0.6699" y="7" relative="1" as="geometry">
                        <mxPoint x="4" y="42" as="offset"/>
                    </mxGeometry>
                </mxCell>
                <mxCell id="66" value="0..n" style="edgeLabel;html=1;align=center;verticalAlign=middle;resizable=0;points=[];fontSize=18;" parent="64" vertex="1" connectable="0">
                    <mxGeometry x="0.792" y="2" relative="1" as="geometry">
                        <mxPoint x="-1" as="offset"/>
                    </mxGeometry>
                </mxCell>
                <mxCell id="79" style="edgeStyle=orthogonalEdgeStyle;shape=link;html=1;exitX=0.5;exitY=1;exitDx=0;exitDy=0;entryX=0.5;entryY=0;entryDx=0;entryDy=0;strokeColor=#FF0000;fontSize=18;" parent="1" source="67" target="69" edge="1">
                    <mxGeometry relative="1" as="geometry"/>
                </mxCell>
                <mxCell id="80" style="edgeStyle=orthogonalEdgeStyle;shape=link;html=1;exitX=0.5;exitY=1;exitDx=0;exitDy=0;entryX=0.5;entryY=0;entryDx=0;entryDy=0;strokeColor=#FF0000;fontSize=18;" parent="1" source="67" target="68" edge="1">
                    <mxGeometry relative="1" as="geometry"/>
                </mxCell>
                <mxCell id="86" style="edgeStyle=orthogonalEdgeStyle;shape=link;html=1;entryX=0.5;entryY=0;entryDx=0;entryDy=0;strokeColor=#FF0000;fontSize=18;" parent="1" source="67" target="83" edge="1">
                    <mxGeometry relative="1" as="geometry">
                        <Array as="points">
                            <mxPoint x="210" y="1040"/>
                            <mxPoint x="1055" y="1040"/>
                        </Array>
                    </mxGeometry>
                </mxCell>
                <mxCell id="67" value="&lt;u&gt;プロジェクト&lt;/u&gt;&lt;br&gt;&lt;br&gt;&lt;div style=&quot;text-align: left;&quot;&gt;&lt;span style=&quot;background-color: initial;&quot;&gt;・A社○○案件&lt;/span&gt;&lt;/div&gt;&lt;div style=&quot;text-align: left;&quot;&gt;&lt;span style=&quot;background-color: initial;&quot;&gt;・2022/09/01&lt;/span&gt;&lt;/div&gt;&lt;div style=&quot;text-align: left;&quot;&gt;&lt;span style=&quot;background-color: initial;&quot;&gt;・2023/08/31&lt;/span&gt;&lt;/div&gt;" style="rounded=1;whiteSpace=wrap;html=1;fontSize=18;verticalAlign=top;fillColor=#fff2cc;strokeColor=#d6b656;" parent="1" vertex="1">
                    <mxGeometry x="93.5" y="1160" width="210" height="120" as="geometry"/>
                </mxCell>
                <mxCell id="68" value="&lt;u&gt;マイルストーン&lt;/u&gt;&lt;br&gt;&lt;br&gt;&lt;div style=&quot;text-align: left;&quot;&gt;&lt;span style=&quot;background-color: initial;&quot;&gt;・Phase 2&lt;/span&gt;&lt;/div&gt;&lt;div style=&quot;text-align: left;&quot;&gt;&lt;span style=&quot;background-color: initial;&quot;&gt;・2022/11/01&lt;/span&gt;&lt;/div&gt;&lt;div style=&quot;text-align: left;&quot;&gt;&lt;span style=&quot;background-color: initial;&quot;&gt;・2023/01/31&lt;/span&gt;&lt;/div&gt;" style="rounded=1;whiteSpace=wrap;html=1;fontSize=18;verticalAlign=top;fillColor=#fff2cc;strokeColor=#d6b656;" parent="1" vertex="1">
                    <mxGeometry x="-80" y="1400" width="210" height="120" as="geometry"/>
                </mxCell>
                <mxCell id="77" style="edgeStyle=orthogonalEdgeStyle;html=1;exitX=1;exitY=0.5;exitDx=0;exitDy=0;entryX=0;entryY=0.5;entryDx=0;entryDy=0;strokeColor=#FF0000;fontSize=18;shape=link;" parent="1" source="69" target="75" edge="1">
                    <mxGeometry relative="1" as="geometry"/>
                </mxCell>
                <mxCell id="69" value="&lt;u&gt;マイルストーン&lt;/u&gt;&lt;br&gt;&lt;br&gt;&lt;div style=&quot;text-align: left;&quot;&gt;&lt;span style=&quot;background-color: initial;&quot;&gt;・Phase 1&lt;/span&gt;&lt;/div&gt;&lt;div style=&quot;text-align: left;&quot;&gt;&lt;span style=&quot;background-color: initial;&quot;&gt;・2022/09/01&lt;/span&gt;&lt;/div&gt;&lt;div style=&quot;text-align: left;&quot;&gt;&lt;span style=&quot;background-color: initial;&quot;&gt;・2022/11/30&lt;/span&gt;&lt;/div&gt;" style="rounded=1;whiteSpace=wrap;html=1;fontSize=18;verticalAlign=top;fillColor=#fff2cc;strokeColor=#d6b656;" parent="1" vertex="1">
                    <mxGeometry x="260" y="1400" width="210" height="120" as="geometry"/>
                </mxCell>
                <mxCell id="75" value="&lt;u&gt;タスク名&lt;/u&gt;&lt;br&gt;&lt;br&gt;&lt;div style=&quot;text-align: left;&quot;&gt;&lt;span style=&quot;background-color: initial;&quot;&gt;・○○開発&lt;/span&gt;&lt;/div&gt;&lt;div style=&quot;text-align: left;&quot;&gt;&lt;span style=&quot;background-color: initial;&quot;&gt;・~~~~&lt;/span&gt;&lt;/div&gt;&lt;div style=&quot;text-align: left;&quot;&gt;&lt;span style=&quot;background-color: initial;&quot;&gt;・作業中&lt;/span&gt;&lt;/div&gt;&lt;div style=&quot;text-align: left;&quot;&gt;&lt;span style=&quot;background-color: initial;&quot;&gt;・https://~~&lt;/span&gt;&lt;/div&gt;" style="rounded=1;whiteSpace=wrap;html=1;fontSize=18;verticalAlign=top;fillColor=#fff2cc;strokeColor=#d6b656;" parent="1" vertex="1">
                    <mxGeometry x="580" y="1100" width="210" height="140" as="geometry"/>
                </mxCell>
                <mxCell id="91" style="edgeStyle=orthogonalEdgeStyle;shape=link;html=1;exitX=0.5;exitY=1;exitDx=0;exitDy=0;entryX=0.5;entryY=0;entryDx=0;entryDy=0;strokeColor=#FF0000;fontSize=18;" parent="1" source="76" target="89" edge="1">
                    <mxGeometry relative="1" as="geometry"/>
                </mxCell>
                <mxCell id="76" value="&lt;u&gt;タスク名&lt;/u&gt;&lt;br&gt;&lt;br&gt;&lt;div style=&quot;text-align: left;&quot;&gt;&lt;span style=&quot;background-color: initial;&quot;&gt;・XX&lt;/span&gt;&lt;span style=&quot;background-color: initial;&quot;&gt;開発&lt;/span&gt;&lt;/div&gt;&lt;div style=&quot;border-color: var(--border-color); text-align: left;&quot;&gt;&lt;span style=&quot;border-color: var(--border-color); background-color: initial;&quot;&gt;・~~~~&lt;/span&gt;&lt;/div&gt;&lt;div style=&quot;border-color: var(--border-color); text-align: left;&quot;&gt;&lt;span style=&quot;border-color: var(--border-color); background-color: initial;&quot;&gt;・未着手&lt;/span&gt;&lt;/div&gt;&lt;div style=&quot;border-color: var(--border-color); text-align: left;&quot;&gt;&lt;span style=&quot;border-color: var(--border-color); background-color: initial;&quot;&gt;・https://~~&lt;/span&gt;&lt;/div&gt;" style="rounded=1;whiteSpace=wrap;html=1;fontSize=18;verticalAlign=top;fillColor=#fff2cc;strokeColor=#d6b656;" parent="1" vertex="1">
                    <mxGeometry x="580" y="1300" width="210" height="140" as="geometry"/>
                </mxCell>
                <mxCell id="81" value="&lt;span style=&quot;font-size: 14px;&quot;&gt;未着手なら&lt;br&gt;&lt;div style=&quot;&quot;&gt;&lt;span style=&quot;background-color: initial;&quot;&gt;マイルストーン不要&lt;/span&gt;&lt;/div&gt;&lt;/span&gt;" style="rounded=0;whiteSpace=wrap;html=1;fontSize=18;fillColor=#FFE6CC;align=center;" parent="1" vertex="1">
                    <mxGeometry x="530" y="1440" width="146.5" height="70" as="geometry"/>
                </mxCell>
                <mxCell id="84" style="edgeStyle=orthogonalEdgeStyle;shape=link;html=1;entryX=1;entryY=0.5;entryDx=0;entryDy=0;strokeColor=#FF0000;fontSize=18;" parent="1" source="83" target="75" edge="1">
                    <mxGeometry relative="1" as="geometry"/>
                </mxCell>
                <mxCell id="85" style="edgeStyle=orthogonalEdgeStyle;shape=link;html=1;entryX=1;entryY=0.5;entryDx=0;entryDy=0;strokeColor=#FF0000;fontSize=18;" parent="1" source="83" target="76" edge="1">
                    <mxGeometry relative="1" as="geometry"/>
                </mxCell>
                <mxCell id="100" style="edgeStyle=orthogonalEdgeStyle;shape=link;html=1;exitX=1;exitY=0.5;exitDx=0;exitDy=0;entryX=1;entryY=0.75;entryDx=0;entryDy=0;strokeColor=#FF0000;fontSize=18;" parent="1" source="83" target="97" edge="1">
                    <mxGeometry relative="1" as="geometry"/>
                </mxCell>
                <mxCell id="83" value="&lt;u&gt;社員&lt;/u&gt;&lt;br&gt;&lt;br&gt;&lt;div style=&quot;text-align: left;&quot;&gt;・田中　浩&lt;/div&gt;&lt;div style=&quot;text-align: left;&quot;&gt;&lt;span style=&quot;background-color: initial;&quot;&gt;・tanaka@~~~&lt;/span&gt;&lt;/div&gt;&lt;div style=&quot;text-align: left;&quot;&gt;&lt;span style=&quot;background-color: initial;&quot;&gt;・hogefuga&lt;/span&gt;&lt;/div&gt;&lt;div style=&quot;text-align: left;&quot;&gt;&lt;span style=&quot;background-color: initial;&quot;&gt;・PG&lt;/span&gt;&lt;/div&gt;" style="rounded=1;whiteSpace=wrap;html=1;fontSize=18;verticalAlign=top;fillColor=#fff2cc;strokeColor=#d6b656;" parent="1" vertex="1">
                    <mxGeometry x="950" y="1100" width="210" height="140" as="geometry"/>
                </mxCell>
                <mxCell id="87" value="&lt;div style=&quot;&quot;&gt;&lt;span style=&quot;font-size: 14px; background-color: initial;&quot;&gt;タスクの割り当ては&lt;/span&gt;&lt;/div&gt;&lt;span style=&quot;font-size: 14px;&quot;&gt;&lt;div style=&quot;&quot;&gt;&lt;span style=&quot;background-color: initial;&quot;&gt;PJ参加スタッフから&lt;/span&gt;&lt;/div&gt;&lt;div style=&quot;&quot;&gt;&lt;span style=&quot;background-color: initial;&quot;&gt;プルダウン選択&lt;/span&gt;&lt;/div&gt;&lt;/span&gt;" style="rounded=0;whiteSpace=wrap;html=1;fontSize=18;fillColor=#FFE6CC;align=center;" parent="1" vertex="1">
                    <mxGeometry x="750" y="1425" width="146.5" height="70" as="geometry"/>
                </mxCell>
                <mxCell id="93" style="edgeStyle=orthogonalEdgeStyle;shape=link;html=1;exitX=1;exitY=0.25;exitDx=0;exitDy=0;entryX=0.25;entryY=1;entryDx=0;entryDy=0;strokeColor=#FF0000;fontSize=18;" parent="1" source="89" target="83" edge="1">
                    <mxGeometry relative="1" as="geometry">
                        <Array as="points">
                            <mxPoint x="890" y="1658"/>
                            <mxPoint x="890" y="1560"/>
                            <mxPoint x="1003" y="1560"/>
                        </Array>
                    </mxGeometry>
                </mxCell>
                <mxCell id="94" style="edgeStyle=orthogonalEdgeStyle;shape=link;html=1;exitX=1;exitY=0.75;exitDx=0;exitDy=0;entryX=0;entryY=0.75;entryDx=0;entryDy=0;strokeColor=#FF0000;fontSize=18;" parent="1" source="89" target="90" edge="1">
                    <mxGeometry relative="1" as="geometry"/>
                </mxCell>
                <mxCell id="98" style="edgeStyle=orthogonalEdgeStyle;shape=link;html=1;exitX=1;exitY=0.75;exitDx=0;exitDy=0;entryX=0;entryY=0.75;entryDx=0;entryDy=0;strokeColor=#FF0000;fontSize=18;" parent="1" source="89" target="97" edge="1">
                    <mxGeometry relative="1" as="geometry"/>
                </mxCell>
                <mxCell id="99" style="edgeStyle=orthogonalEdgeStyle;shape=link;html=1;exitX=0.5;exitY=1;exitDx=0;exitDy=0;entryX=0.5;entryY=0;entryDx=0;entryDy=0;strokeColor=#FF0000;fontSize=18;" parent="1" source="89" target="96" edge="1">
                    <mxGeometry relative="1" as="geometry"/>
                </mxCell>
                <mxCell id="89" value="&lt;u&gt;スレッド名&lt;/u&gt;&lt;br&gt;&lt;br&gt;&lt;div style=&quot;text-align: left;&quot;&gt;&lt;span style=&quot;background-color: initial;&quot;&gt;・2022/10/01 09:30&lt;/span&gt;&lt;/div&gt;&lt;div style=&quot;text-align: left;&quot;&gt;&lt;span style=&quot;background-color: initial;&quot;&gt;・from : 田中&lt;/span&gt;&lt;/div&gt;&lt;div style=&quot;text-align: left;&quot;&gt;&lt;span style=&quot;background-color: initial;&quot;&gt;・to : 佐藤&lt;/span&gt;&lt;/div&gt;&lt;div style=&quot;text-align: left;&quot;&gt;&lt;span style=&quot;background-color: initial;&quot;&gt;・【ご確認】&lt;/span&gt;&lt;/div&gt;&lt;div style=&quot;text-align: left;&quot;&gt;&lt;span style=&quot;background-color: initial;&quot;&gt;・～～でよき？&lt;/span&gt;&lt;/div&gt;&lt;div style=&quot;text-align: left;&quot;&gt;&lt;span style=&quot;background-color: initial;&quot;&gt;・False&lt;/span&gt;&lt;/div&gt;" style="rounded=1;whiteSpace=wrap;html=1;fontSize=18;verticalAlign=top;fillColor=#fff2cc;strokeColor=#d6b656;" parent="1" vertex="1">
                    <mxGeometry x="580" y="1610" width="210" height="190" as="geometry"/>
                </mxCell>
                <mxCell id="95" style="edgeStyle=orthogonalEdgeStyle;shape=link;html=1;exitX=0.75;exitY=0;exitDx=0;exitDy=0;entryX=0.75;entryY=1;entryDx=0;entryDy=0;strokeColor=#FF0000;fontSize=18;" parent="1" source="90" target="83" edge="1">
                    <mxGeometry relative="1" as="geometry"/>
                </mxCell>
                <mxCell id="90" value="&lt;u&gt;返信&lt;/u&gt;&lt;br&gt;&lt;br&gt;&lt;div style=&quot;text-align: left;&quot;&gt;&lt;span style=&quot;background-color: initial;&quot;&gt;・2022/10/01 13:15&lt;/span&gt;&lt;/div&gt;&lt;div style=&quot;text-align: left;&quot;&gt;&lt;span style=&quot;background-color: initial;&quot;&gt;・from : 佐藤&lt;/span&gt;&lt;/div&gt;&lt;div style=&quot;text-align: left;&quot;&gt;&lt;span style=&quot;background-color: initial;&quot;&gt;・to : 田中&lt;/span&gt;&lt;/div&gt;&lt;div style=&quot;text-align: left;&quot;&gt;&lt;span style=&quot;background-color: initial;&quot;&gt;・○○検討した？&lt;/span&gt;&lt;br&gt;&lt;/div&gt;&lt;div style=&quot;text-align: left;&quot;&gt;&lt;br&gt;&lt;/div&gt;" style="rounded=1;whiteSpace=wrap;html=1;fontSize=18;verticalAlign=top;fillColor=#fff2cc;strokeColor=#d6b656;" parent="1" vertex="1">
                    <mxGeometry x="980" y="1610" width="170" height="140" as="geometry"/>
                </mxCell>
                <mxCell id="101" style="edgeStyle=orthogonalEdgeStyle;shape=link;html=1;exitX=1;exitY=0.5;exitDx=0;exitDy=0;entryX=0.5;entryY=1;entryDx=0;entryDy=0;strokeColor=#FF0000;fontSize=18;" parent="1" source="96" target="97" edge="1">
                    <mxGeometry relative="1" as="geometry"/>
                </mxCell>
                <mxCell id="102" style="edgeStyle=orthogonalEdgeStyle;shape=link;html=1;exitX=1;exitY=0.5;exitDx=0;exitDy=0;entryX=0.5;entryY=1;entryDx=0;entryDy=0;strokeColor=#FF0000;fontSize=18;" parent="1" source="96" target="90" edge="1">
                    <mxGeometry relative="1" as="geometry">
                        <Array as="points">
                            <mxPoint x="850" y="1970"/>
                            <mxPoint x="850" y="1790"/>
                            <mxPoint x="1055" y="1790"/>
                        </Array>
                    </mxGeometry>
                </mxCell>
                <mxCell id="96" value="&lt;u&gt;社員&lt;/u&gt;&lt;br&gt;&lt;br&gt;&lt;div style=&quot;text-align: left;&quot;&gt;・佐藤　一郎&lt;/div&gt;&lt;div style=&quot;text-align: left;&quot;&gt;&lt;span style=&quot;background-color: initial;&quot;&gt;・sato@~~~&lt;/span&gt;&lt;/div&gt;&lt;div style=&quot;text-align: left;&quot;&gt;&lt;span style=&quot;background-color: initial;&quot;&gt;・hogefuga&lt;/span&gt;&lt;/div&gt;&lt;div style=&quot;text-align: left;&quot;&gt;&lt;span style=&quot;background-color: initial;&quot;&gt;・SE&lt;/span&gt;&lt;/div&gt;" style="rounded=1;whiteSpace=wrap;html=1;fontSize=18;verticalAlign=top;fillColor=#fff2cc;strokeColor=#d6b656;" parent="1" vertex="1">
                    <mxGeometry x="580" y="1900" width="210" height="140" as="geometry"/>
                </mxCell>
                <mxCell id="97" value="&lt;u&gt;返信&lt;/u&gt;&lt;br&gt;&lt;br&gt;&lt;div style=&quot;text-align: left;&quot;&gt;&lt;span style=&quot;background-color: initial;&quot;&gt;・2022/10/02 9:20&lt;/span&gt;&lt;/div&gt;&lt;div style=&quot;text-align: left;&quot;&gt;&lt;span style=&quot;background-color: initial;&quot;&gt;・from : 田中&lt;/span&gt;&lt;/div&gt;&lt;div style=&quot;text-align: left;&quot;&gt;&lt;span style=&quot;background-color: initial;&quot;&gt;・to : 佐藤&lt;/span&gt;&lt;/div&gt;&lt;div style=&quot;text-align: left;&quot;&gt;&lt;span style=&quot;background-color: initial;&quot;&gt;・○○で検討中&lt;/span&gt;&lt;br&gt;&lt;/div&gt;&lt;div style=&quot;text-align: left;&quot;&gt;&lt;br&gt;&lt;/div&gt;" style="rounded=1;whiteSpace=wrap;html=1;fontSize=18;verticalAlign=top;fillColor=#fff2cc;strokeColor=#d6b656;" parent="1" vertex="1">
                    <mxGeometry x="980" y="1810" width="170" height="140" as="geometry"/>
                </mxCell>
                <mxCell id="103" value="&lt;u&gt;既読管理&lt;/u&gt;&lt;br&gt;&lt;br&gt;&lt;div style=&quot;text-align: left;&quot;&gt;&lt;span style=&quot;background-color: initial;&quot;&gt;・既読日時&lt;/span&gt;&lt;/div&gt;&lt;div style=&quot;text-align: left;&quot;&gt;&lt;span style=&quot;background-color: initial;&quot;&gt;・フラグ&lt;/span&gt;&lt;/div&gt;&lt;div style=&quot;text-align: left;&quot;&gt;&lt;span style=&quot;background-color: initial;&quot;&gt;・宛先&lt;/span&gt;&lt;/div&gt;&lt;div style=&quot;text-align: left;&quot;&gt;&lt;span style=&quot;background-color: initial;&quot;&gt;・本文&lt;/span&gt;&lt;/div&gt;" style="rounded=1;whiteSpace=wrap;html=1;fontSize=18;verticalAlign=top;fillColor=#fff2cc;strokeColor=#d6b656;" parent="1" vertex="1">
                    <mxGeometry x="1080" y="-153" width="150" height="140" as="geometry"/>
                </mxCell>
                <mxCell id="104" value="" style="endArrow=none;html=1;fontSize=18;strokeColor=#FF0000;entryX=0.007;entryY=0.389;entryDx=0;entryDy=0;entryPerimeter=0;" parent="1" target="103" edge="1">
                    <mxGeometry width="50" height="50" relative="1" as="geometry">
                        <mxPoint x="930" y="-99" as="sourcePoint"/>
                        <mxPoint x="1062.5499999999997" y="-100.00000000000014" as="targetPoint"/>
                    </mxGeometry>
                </mxCell>
                <mxCell id="105" value="1" style="edgeLabel;html=1;align=center;verticalAlign=middle;resizable=0;points=[];fontSize=18;" parent="104" vertex="1" connectable="0">
                    <mxGeometry x="-0.5503" y="1" relative="1" as="geometry">
                        <mxPoint as="offset"/>
                    </mxGeometry>
                </mxCell>
                <mxCell id="106" value="0..1" style="edgeLabel;html=1;align=center;verticalAlign=middle;resizable=0;points=[];fontSize=18;" parent="104" vertex="1" connectable="0">
                    <mxGeometry x="0.5662" y="1" relative="1" as="geometry">
                        <mxPoint x="1" as="offset"/>
                    </mxGeometry>
                </mxCell>
                <mxCell id="107" value="&lt;span style=&quot;font-size: 14px;&quot;&gt;宛先指定のある返信だけ&lt;br&gt;既読管理する&lt;br&gt;&lt;/span&gt;" style="rounded=0;whiteSpace=wrap;html=1;fontSize=18;fillColor=#FFE6CC;align=left;" parent="1" vertex="1">
                    <mxGeometry x="1010" y="-280" width="163" height="70" as="geometry"/>
                </mxCell>
                <mxCell id="109" value="" style="endArrow=none;html=1;fontSize=18;exitX=0.5;exitY=1;exitDx=0;exitDy=0;strokeColor=#FF0000;entryX=0.365;entryY=-0.003;entryDx=0;entryDy=0;entryPerimeter=0;" parent="1" source="107" target="103" edge="1">
                    <mxGeometry width="50" height="50" relative="1" as="geometry">
                        <mxPoint x="1053.0320000000002" y="-210" as="sourcePoint"/>
                        <mxPoint x="1129.96" y="-145.6941709230689" as="targetPoint"/>
                    </mxGeometry>
                </mxCell>
                <mxCell id="111" value="" style="endArrow=none;html=1;fontSize=18;exitX=1;exitY=0.5;exitDx=0;exitDy=0;strokeColor=#FF0000;entryX=0.5;entryY=1;entryDx=0;entryDy=0;" parent="1" source="24" target="103" edge="1">
                    <mxGeometry width="50" height="50" relative="1" as="geometry">
                        <mxPoint x="1101.5" y="-200" as="sourcePoint"/>
                        <mxPoint x="1144.7499999999995" y="-143.4200000000003" as="targetPoint"/>
                        <Array as="points">
                            <mxPoint x="1160" y="220"/>
                        </Array>
                    </mxGeometry>
                </mxCell>
                <mxCell id="113" value="&lt;span style=&quot;font-size: 18px;&quot;&gt;0..n&lt;/span&gt;" style="edgeLabel;html=1;align=center;verticalAlign=middle;resizable=0;points=[];fontSize=14;" parent="1" vertex="1" connectable="0">
                    <mxGeometry x="749.9985714285716" y="229" as="geometry">
                        <mxPoint x="407" y="-222" as="offset"/>
                    </mxGeometry>
                </mxCell>
                <mxCell id="114" value="1" style="edgeLabel;html=1;align=center;verticalAlign=middle;resizable=0;points=[];fontSize=18;" parent="1" vertex="1" connectable="0">
                    <mxGeometry x="920.0028571428569" y="225" as="geometry">
                        <mxPoint x="164" y="-5" as="offset"/>
                    </mxGeometry>
                </mxCell>
                <mxCell id="115" value="&lt;u&gt;通知先&lt;/u&gt;&lt;br&gt;&lt;br&gt;&lt;div style=&quot;text-align: left;&quot;&gt;&lt;span style=&quot;background-color: initial;&quot;&gt;・ツール&lt;/span&gt;&lt;/div&gt;&lt;div style=&quot;text-align: left;&quot;&gt;&lt;span style=&quot;background-color: initial;&quot;&gt;・アカウント情報&lt;/span&gt;&lt;/div&gt;" style="rounded=1;whiteSpace=wrap;html=1;fontSize=18;verticalAlign=top;fillColor=#fff2cc;strokeColor=#d6b656;" vertex="1" parent="1">
                    <mxGeometry x="1220" y="70" width="210" height="140" as="geometry"/>
                </mxCell>
                <mxCell id="117" value="" style="endArrow=none;html=1;fontSize=18;exitX=-0.003;exitY=0.369;exitDx=0;exitDy=0;strokeColor=#FF0000;entryX=1;entryY=0.25;entryDx=0;entryDy=0;exitPerimeter=0;" edge="1" parent="1" source="115" target="24">
                    <mxGeometry width="50" height="50" relative="1" as="geometry">
                        <mxPoint x="1290" y="158.18" as="sourcePoint"/>
                        <mxPoint x="1130" y="158.18" as="targetPoint"/>
                    </mxGeometry>
                </mxCell>
                <mxCell id="118" value="&lt;span style=&quot;font-size: 18px;&quot;&gt;1&lt;/span&gt;" style="edgeLabel;html=1;align=center;verticalAlign=middle;resizable=0;points=[];fontSize=14;" vertex="1" connectable="0" parent="117">
                    <mxGeometry x="0.7375" y="-1" relative="1" as="geometry">
                        <mxPoint as="offset"/>
                    </mxGeometry>
                </mxCell>
                <mxCell id="119" value="1..n" style="edgeLabel;html=1;align=center;verticalAlign=middle;resizable=0;points=[];fontSize=18;" vertex="1" connectable="0" parent="117">
                    <mxGeometry x="-0.7089" y="-3" relative="1" as="geometry">
                        <mxPoint as="offset"/>
                    </mxGeometry>
                </mxCell>
            </root>
        </mxGraphModel>
    </diagram>
</mxfile>